# xmcd
#
# Track frame offsets: 
#        150
#        15001
#        36123
#        51645
#        64225
#        76829
#        94729
#        107278
#        120944
#        140019
#        156753
#        173244
#        187460
#        209378
#
# Disc length: 3008 seconds
#
# Revision: 0
# Processed by: cddbd v1.5.2PL0 Copyright (c) Steve Scherf et al.
# Submitted via: ExactAudioCopy v1.0b4
#
DISCID=b80bbe0e
DTITLE=Vance Kelly and The Back Street Blues Band - How Can I Miss You, 
DTITLE=When You Won't Leave
DYEAR=2018
DGENRE=Blues
TTITLE0=All About Life
TTITLE1=Biscuits, Eggs And Sausage
TTITLE2=Get Home To My Baby
TTITLE3=How Can I Miss You, When You Won't Leave
TTITLE4=Meet You In The Spring
TTITLE5=Rumble Through Your Drawers
TTITLE6=Moving On
TTITLE7=Count On Me
TTITLE8=Don't Give My Love Away
TTITLE9=Do It Right
TTITLE10=Back On Track
TTITLE11=Sticker Than You
TTITLE12=Come On
TTITLE13=Jamming In The Studio
EXTD=
EXTT0=
EXTT1=
EXTT2=
EXTT3=
EXTT4=
EXTT5=
EXTT6=
EXTT7=
EXTT8=
EXTT9=
EXTT10=
EXTT11=
EXTT12=
EXTT13=
PLAYORDER=
